<svg width="123" height="31" viewBox="0 0 123 31" fill="none" xmlns="http://www.w3.org/2000/svg">
<path d="M9.48194 29.592C7.60994 29.592 6.04994 29.292 4.80194 28.692C3.57794 28.092 2.62994 27.3 1.95794 26.316C1.28594 25.308 0.853938 24.216 0.661938 23.04C0.589938 22.488 0.553938 21.936 0.553938 21.384C0.553938 19.968 0.757938 18.552 1.16594 17.136C1.64594 15.48 2.34194 13.872 3.25394 12.312C4.16594 10.752 5.24594 9.3 6.49394 7.956C7.74194 6.612 9.10994 5.436 10.5979 4.428C12.1099 3.42 13.6939 2.652 15.3499 2.124C16.9339 1.644 18.4099 1.404 19.7779 1.404C20.2099 1.404 20.6179 1.428 21.0019 1.476C21.4099 1.524 21.7939 1.596 22.1539 1.692C23.0659 1.956 23.7979 2.376 24.3499 2.952C24.9019 3.504 25.1779 4.2 25.1779 5.04C25.1779 5.28 25.1419 5.544 25.0699 5.832C25.7659 6.528 26.2699 7.368 26.5819 8.352C26.8939 9.336 27.0499 10.392 27.0499 11.52C27.0499 12.264 26.9779 13.02 26.8339 13.788C26.7139 14.556 26.5339 15.324 26.2939 16.092C25.7419 17.844 24.9139 19.524 23.8099 21.132C22.7299 22.74 21.4459 24.18 19.9579 25.452C18.4699 26.724 16.8379 27.732 15.0619 28.476C13.2859 29.22 11.4259 29.592 9.48194 29.592ZM9.51794 29.088L9.62594 29.052C11.4499 29.028 13.1659 28.596 14.7739 27.756C16.3819 26.916 17.8339 25.812 19.1299 24.444C20.4499 23.076 21.5779 21.576 22.5139 19.944C23.4499 18.288 24.1579 16.656 24.6379 15.048C25.0459 13.68 25.2499 12.312 25.2499 10.944C25.2499 10.248 25.1779 9.564 25.0339 8.892C24.9139 8.22 24.7099 7.608 24.4219 7.056C24.1819 7.344 23.9299 7.536 23.6659 7.632C23.4979 7.704 23.3779 7.74 23.3059 7.74C23.2099 7.74 23.1619 7.704 23.1619 7.632C23.1859 7.56 23.2459 7.488 23.3419 7.416C23.6299 7.176 23.8459 6.828 23.9899 6.372C23.5339 5.748 22.9459 5.256 22.2259 4.896C21.5059 4.536 20.6179 4.356 19.5619 4.356C18.5299 4.356 17.4139 4.596 16.2139 5.076C15.0379 5.556 13.8859 6.252 12.7579 7.164C12.0619 7.74 11.4379 8.436 10.8859 9.252C10.3579 10.068 9.94994 10.896 9.66194 11.736C9.37394 12.552 9.22994 13.272 9.22994 13.896C9.22994 14.616 9.42194 15.084 9.80594 15.3C9.99794 15.396 10.0939 15.504 10.0939 15.624C10.0939 15.696 10.0459 15.744 9.94994 15.768C9.85394 15.792 9.74594 15.78 9.62594 15.732C9.19394 15.564 8.86994 15.276 8.65394 14.868C8.46194 14.436 8.36594 13.932 8.36594 13.356C8.36594 12.372 8.64194 11.268 9.19394 10.044C9.74594 8.82 10.4899 7.8 11.4259 6.984C12.6499 5.928 13.9819 5.136 15.4219 4.608C16.8619 4.056 18.2539 3.78 19.5979 3.78C20.5819 3.78 21.4459 3.9 22.1899 4.14C22.9339 4.38 23.5939 4.692 24.1699 5.076C24.1459 4.404 23.8939 3.852 23.4139 3.42C22.9579 2.988 22.3819 2.664 21.6859 2.448C20.9899 2.256 20.2459 2.16 19.4539 2.16C18.9259 2.16 18.3499 2.208 17.7259 2.304C17.1019 2.4 16.4419 2.556 15.7459 2.772C14.8099 3.06 13.8499 3.552 12.8659 4.248C11.8819 4.92 10.9219 5.736 9.98594 6.696C9.04994 7.632 8.17394 8.64 7.35794 9.72C6.54194 10.8 5.84594 11.892 5.26994 12.996C4.64594 14.148 4.10594 15.516 3.64994 17.1C3.21794 18.66 3.00194 20.22 3.00194 21.78C3.00194 22.14 3.01394 22.512 3.03794 22.896C3.06194 23.256 3.10994 23.604 3.18194 23.94C3.34994 24.852 3.67394 25.704 4.15394 26.496C4.65794 27.288 5.34194 27.912 6.20594 28.368C7.09394 28.848 8.19794 29.088 9.51794 29.088ZM30.0039 27.216C29.1399 27.216 28.5399 26.964 28.2039 26.46C27.8679 25.956 27.6999 25.32 27.6999 24.552C27.6999 23.76 27.8199 22.896 28.0599 21.96C28.3239 21.024 28.6239 20.112 28.9599 19.224C29.3199 18.336 29.6559 17.556 29.9679 16.884C30.3039 16.212 30.5319 15.744 30.6519 15.48C31.0839 14.568 31.6119 13.536 32.2359 12.384C32.8839 11.232 33.6039 10.056 34.3959 8.856C35.2119 7.656 36.0639 6.516 36.9519 5.436C37.8639 4.356 38.7999 3.42 39.7599 2.628C40.7439 1.836 41.7159 1.296 42.6759 1.008C42.9399 0.935999 43.1799 0.899999 43.3959 0.899999C43.8039 0.899999 44.1399 1.02 44.4039 1.26C44.6919 1.476 44.8359 1.86 44.8359 2.412C44.8359 2.796 44.7399 3.276 44.5479 3.852C44.2359 4.692 43.7079 5.628 42.9639 6.66C42.2199 7.668 41.3439 8.724 40.3359 9.828C39.3279 10.908 38.2599 11.976 37.1319 13.032C36.0279 14.088 34.9479 15.072 33.8919 15.984C32.8359 16.896 31.8999 17.676 31.0839 18.324C30.8679 18.78 30.6639 19.224 30.4719 19.656C30.3039 20.088 30.1479 20.508 30.0039 20.916C29.9319 21.132 29.8239 21.456 29.6799 21.888C29.5359 22.32 29.4039 22.8 29.2839 23.328C29.1639 23.856 29.1039 24.36 29.1039 24.84C29.1039 25.32 29.1999 25.74 29.3919 26.1C29.5839 26.436 29.9319 26.604 30.4359 26.604C30.8439 26.604 31.2159 26.472 31.5519 26.208C31.9119 25.944 32.2359 25.656 32.5239 25.344C33.5319 24.192 34.4319 22.86 35.2239 21.348C35.3199 21.18 35.3919 21.096 35.4399 21.096C35.4879 21.096 35.5119 21.168 35.5119 21.312C35.5119 21.528 35.4639 21.756 35.3679 21.996C34.9119 22.836 34.4919 23.544 34.1079 24.12C33.7479 24.696 33.2199 25.332 32.5239 26.028C32.2119 26.34 31.8399 26.616 31.4079 26.856C30.9999 27.096 30.5319 27.216 30.0039 27.216ZM31.4799 17.496C32.2239 16.848 33.0879 16.08 34.0719 15.192C35.0559 14.28 36.0639 13.308 37.0959 12.276C38.1279 11.244 39.0999 10.212 40.0119 9.18C40.9479 8.148 41.7519 7.176 42.4239 6.264C43.1199 5.352 43.5879 4.56 43.8279 3.888C44.0439 3.264 44.1519 2.784 44.1519 2.448C44.1519 1.824 43.8759 1.512 43.3239 1.512C43.0119 1.512 42.6399 1.632 42.2079 1.872C41.7759 2.088 41.3799 2.376 41.0199 2.736C40.4199 3.312 39.7119 4.14 38.8959 5.22C38.1039 6.276 37.2639 7.488 36.3759 8.856C35.4879 10.224 34.6119 11.652 33.7479 13.14C32.9079 14.628 32.1519 16.08 31.4799 17.496ZM43.9472 27.252C43.1312 27.252 42.5432 26.976 42.1832 26.424C41.8232 25.848 41.6432 25.14 41.6432 24.3C41.6432 23.46 41.7872 22.632 42.0752 21.816L42.4352 20.772L41.1032 22.824C40.7672 23.352 40.3232 23.952 39.7712 24.624C39.2432 25.272 38.6792 25.836 38.0792 26.316C37.3112 26.94 36.6152 27.252 35.9912 27.252C35.3912 27.252 34.9232 27 34.5872 26.496C34.2752 25.992 34.1192 25.356 34.1192 24.588C34.1192 24.06 34.1912 23.532 34.3352 23.004C34.6952 21.66 35.2472 20.436 35.9912 19.332C36.7352 18.204 37.6712 17.232 38.7992 16.416C39.2792 16.056 39.8912 15.768 40.6352 15.552C41.3792 15.312 42.1232 15.192 42.8672 15.192C43.1552 15.192 43.4432 15.216 43.7312 15.264C44.0192 15.312 44.2832 15.372 44.5232 15.444C44.7152 15.012 44.9312 14.532 45.1712 14.004C45.4352 13.476 45.6872 12.96 45.9272 12.456C46.1912 11.928 46.4072 11.496 46.5752 11.16C47.0552 10.176 47.6552 9 48.3752 7.632C49.0952 6.264 49.9352 4.992 50.8952 3.816C51.6392 2.88 52.4912 2.064 53.4512 1.368C54.4352 0.647999 55.3832 0.287998 56.2952 0.287998C56.8472 0.287998 57.2552 0.455998 57.5192 0.791998C57.8072 1.128 57.9512 1.536 57.9512 2.016C57.9512 2.448 57.8672 2.844 57.6992 3.204C57.3152 4.068 56.7032 4.98 55.8632 5.94C55.0472 6.9 54.1592 7.836 53.1992 8.748C52.2632 9.636 51.4232 10.44 50.6792 11.16C50.0552 11.76 49.5032 12.288 49.0232 12.744C48.5432 13.176 48.0992 13.608 47.6912 14.04C47.2832 14.472 46.8392 14.952 46.3592 15.48C45.8312 16.68 45.3392 17.88 44.8832 19.08C44.4512 20.28 44.0912 21.396 43.8032 22.428C43.5392 23.46 43.4072 24.324 43.4072 25.02C43.4072 26.004 43.7072 26.532 44.3072 26.604C44.7152 26.604 45.0992 26.472 45.4592 26.208C45.8192 25.944 46.1312 25.656 46.3952 25.344C46.9472 24.744 47.4512 24.084 47.9072 23.364C48.3632 22.644 48.8192 21.876 49.2752 21.06C49.3472 20.964 49.4192 20.916 49.4912 20.916C49.5872 20.916 49.6352 20.988 49.6352 21.132C49.6352 21.252 49.6112 21.348 49.5632 21.42C49.1312 22.212 48.6632 23.004 48.1592 23.796C47.6792 24.588 47.0912 25.332 46.3952 26.028C46.0832 26.34 45.7232 26.628 45.3152 26.892C44.9072 27.132 44.4512 27.252 43.9472 27.252ZM46.9352 14.22C47.4872 13.596 48.0032 13.044 48.4832 12.564C48.9632 12.06 49.5512 11.448 50.2472 10.728C50.9192 10.056 51.6872 9.264 52.5512 8.352C53.4392 7.44 54.2672 6.516 55.0352 5.58C55.8272 4.644 56.4032 3.816 56.7632 3.096C57.0512 2.52 57.1952 2.052 57.1952 1.692C57.1952 1.092 56.8952 0.791998 56.2952 0.791998C55.5512 0.791998 54.7712 1.14 53.9552 1.836C53.1632 2.508 52.3832 3.432 51.6152 4.608C50.9672 5.616 50.3552 6.72 49.7792 7.92C49.2032 9.096 48.6752 10.236 48.1952 11.34C47.7152 12.444 47.2952 13.404 46.9352 14.22ZM36.7472 26.136C37.1792 26.136 37.6952 25.848 38.2952 25.272C38.9192 24.672 39.5552 23.94 40.2032 23.076C40.8752 22.188 41.4872 21.324 42.0392 20.484C42.2072 20.244 42.4232 19.848 42.6872 19.296C42.9752 18.744 43.2752 18.156 43.5872 17.532C43.8992 16.884 44.1632 16.32 44.3792 15.84C44.2352 15.792 44.0912 15.768 43.9472 15.768C43.8272 15.768 43.6952 15.768 43.5512 15.768C42.8072 15.768 42.0632 15.972 41.3192 16.38C40.5992 16.764 39.9512 17.28 39.3752 17.928C38.5592 18.816 37.8752 19.776 37.3232 20.808C36.7712 21.816 36.3872 22.704 36.1712 23.472C36.0512 23.904 35.9912 24.348 35.9912 24.804C35.9912 25.164 36.0392 25.476 36.1352 25.74C36.2552 26.004 36.4592 26.136 36.7472 26.136ZM59.6938 30.168C59.4058 30.024 59.1778 29.82 59.0098 29.556C58.8658 29.292 58.7938 29.028 58.7938 28.764C58.7938 28.5 58.8658 28.284 59.0098 28.116C59.0818 28.02 59.1658 27.96 59.2618 27.936C59.3818 27.936 59.4178 27.996 59.3698 28.116C59.2978 28.476 59.4658 28.812 59.8738 29.124C60.2818 29.436 60.6538 29.64 60.9898 29.736C61.3498 29.808 61.7098 29.844 62.0698 29.844C62.8138 29.844 63.4738 29.736 64.0498 29.52C64.9138 29.232 65.7658 28.644 66.6058 27.756C67.4698 26.868 68.2738 25.86 69.0178 24.732C69.7378 23.628 70.4458 22.38 71.1418 20.988C71.8618 19.572 72.5818 18.12 73.3018 16.632C74.0458 15.12 74.8378 13.668 75.6778 12.276C76.5178 10.86 77.4178 9.6 78.3778 8.496C79.3618 7.368 80.4418 6.504 81.6178 5.904C80.4418 5.76 79.2298 5.568 77.9818 5.328C76.7578 5.064 75.7258 4.86 74.8858 4.716C74.3578 4.62 73.7578 4.56 73.0858 4.536C72.4138 4.488 71.7058 4.464 70.9618 4.464C69.6418 4.464 68.3218 4.548 67.0018 4.716C65.6818 4.86 64.6258 5.112 63.8338 5.472C62.4418 6.096 61.2418 6.96 60.2338 8.064C59.2258 9.144 58.7218 10.5 58.7218 12.132C58.7218 12.804 58.8298 13.38 59.0458 13.86C59.2858 14.316 59.5858 14.664 59.9458 14.904C60.3538 15.144 60.7738 15.264 61.2058 15.264C61.7338 15.264 62.2738 15.108 62.8258 14.796C63.3778 14.46 63.8578 13.98 64.2658 13.356C64.4578 13.044 64.6378 12.588 64.8058 11.988C64.9978 11.388 65.0938 10.776 65.0938 10.152C65.0938 9.816 65.0578 9.492 64.9858 9.18C64.9378 8.868 64.8298 8.592 64.6618 8.352C64.6138 8.256 64.5898 8.208 64.5898 8.208C64.5898 8.136 64.6258 8.1 64.6978 8.1C64.7938 8.1 64.8778 8.16 64.9498 8.28C65.0698 8.448 65.1898 8.712 65.3098 9.072C65.4538 9.408 65.5498 9.72 65.5978 10.008C65.6218 10.152 65.6338 10.296 65.6338 10.44C65.6578 10.584 65.6698 10.728 65.6698 10.872C65.6698 11.352 65.6098 11.844 65.4898 12.348C65.3698 12.828 65.1778 13.272 64.9138 13.68C64.5298 14.328 64.0138 14.82 63.3658 15.156C62.7178 15.468 62.0458 15.624 61.3498 15.624C60.7978 15.624 60.2698 15.516 59.7658 15.3C59.0218 14.94 58.4698 14.424 58.1098 13.752C57.7738 13.08 57.6058 12.348 57.6058 11.556C57.6058 11.028 57.6658 10.5 57.7858 9.972C57.9298 9.42 58.1218 8.892 58.3618 8.388C58.7698 7.5 59.3338 6.72 60.0538 6.048C60.7738 5.376 61.4938 4.848 62.2138 4.464C63.4138 3.816 64.6138 3.36 65.8138 3.096C67.0378 2.832 68.2738 2.7 69.5218 2.7C70.5538 2.7 71.5978 2.772 72.6538 2.916C73.7098 3.06 74.7778 3.264 75.8578 3.528C77.0818 3.816 78.3418 4.14 79.6378 4.5C80.2858 4.668 81.0538 4.86 81.9418 5.076C82.8538 5.268 83.7178 5.364 84.5338 5.364C85.0138 5.364 85.4818 5.304 85.9378 5.184C86.4178 5.04 86.7898 4.764 87.0538 4.356C87.1498 4.212 87.1978 4.032 87.1978 3.816C87.1978 3.696 87.1858 3.588 87.1618 3.492C87.1618 3.372 87.1738 3.3 87.1978 3.276C87.2458 3.228 87.2938 3.204 87.3418 3.204C87.4378 3.204 87.5218 3.276 87.5938 3.42C87.6658 3.516 87.7018 3.696 87.7018 3.96C87.7018 4.128 87.6898 4.248 87.6658 4.32C87.5218 4.824 87.1978 5.208 86.6938 5.472C86.2138 5.736 85.7338 5.904 85.2538 5.976C85.0618 6 84.8458 6.024 84.6058 6.048C84.3898 6.048 84.1618 6.048 83.9218 6.048C83.7298 6.048 83.5258 6.048 83.3098 6.048C83.0938 6.048 82.8778 6.036 82.6618 6.012C81.8698 6.372 81.0418 7.056 80.1778 8.064C79.1218 9.312 78.2098 10.644 77.4418 12.06C76.6738 13.452 75.9658 14.892 75.3178 16.38C74.6698 17.844 73.9978 19.296 73.3018 20.736C72.6298 22.176 71.8258 23.556 70.8898 24.876C70.0498 26.052 69.1018 27.108 68.0458 28.044C66.9898 28.98 65.7898 29.688 64.4458 30.168C63.7018 30.432 62.8138 30.564 61.7818 30.564C61.3738 30.564 60.9898 30.528 60.6298 30.456C60.2698 30.408 59.9578 30.312 59.6938 30.168ZM80.3027 27.72C79.3907 27.72 78.5987 27.432 77.9267 26.856C77.2787 26.256 76.9547 25.344 76.9547 24.12C76.9547 23.352 77.0867 22.56 77.3507 21.744C77.6387 20.904 77.9507 20.16 78.2867 19.512C78.9107 18.336 79.6907 17.316 80.6267 16.452C81.5867 15.564 82.7267 15.12 84.0467 15.12C85.3187 15.12 86.2067 15.468 86.7107 16.164C87.2147 16.86 87.4667 17.712 87.4667 18.72C87.4667 19.128 87.4307 19.548 87.3587 19.98C87.1667 21.156 86.7707 22.296 86.1707 23.4C86.3387 23.64 86.5547 23.844 86.8187 24.012C87.1067 24.156 87.4187 24.228 87.7547 24.228C88.3307 24.228 88.8227 24.072 89.2307 23.76C89.6387 23.448 89.9867 23.064 90.2747 22.608C90.5867 22.128 90.8507 21.684 91.0667 21.276C91.2107 21.012 91.3427 20.88 91.4627 20.88C91.5347 20.88 91.5707 20.928 91.5707 21.024C91.5707 21.12 91.4987 21.336 91.3547 21.672C90.9467 22.488 90.4667 23.196 89.9147 23.796C89.3627 24.396 88.6427 24.696 87.7547 24.696C86.9387 24.696 86.3147 24.408 85.8827 23.832C85.2107 24.936 84.3947 25.86 83.4347 26.604C82.4747 27.348 81.4307 27.72 80.3027 27.72ZM80.3747 27.288C81.5507 27.288 82.7147 26.712 83.8667 25.56C84.2027 25.224 84.5027 24.876 84.7667 24.516C85.0547 24.132 85.3067 23.748 85.5227 23.364C85.2107 23.004 84.9827 22.62 84.8387 22.212C84.7187 21.78 84.6587 21.372 84.6587 20.988C84.6587 20.388 84.7667 19.86 84.9827 19.404C85.1987 18.924 85.4987 18.684 85.8827 18.684C86.0747 18.684 86.2547 18.78 86.4227 18.972C86.6147 19.164 86.7347 19.464 86.7827 19.872C86.8547 19.536 86.8907 19.176 86.8907 18.792C86.8907 17.88 86.7227 17.16 86.3867 16.632C86.0507 16.08 85.4867 15.804 84.6947 15.804C84.2147 15.804 83.7227 15.996 83.2187 16.38C82.7147 16.74 82.2347 17.184 81.7787 17.712C81.3467 18.24 80.9627 18.78 80.6267 19.332C80.2907 19.884 80.0387 20.34 79.8707 20.7C79.4627 21.588 79.1627 22.38 78.9707 23.076C78.8027 23.772 78.7187 24.384 78.7187 24.912C78.7187 25.68 78.8747 26.268 79.1867 26.676C79.5227 27.084 79.9187 27.288 80.3747 27.288ZM99.3081 27.252C98.6361 27.252 98.0481 27 97.5441 26.496C97.0641 25.992 96.8241 25.26 96.8241 24.3C96.8241 23.94 96.8601 23.568 96.9321 23.184C96.6921 23.64 96.3681 24.132 95.9601 24.66C95.5521 25.164 95.1441 25.62 94.7361 26.028C94.3521 26.412 93.8961 26.724 93.3681 26.964C92.8641 27.18 92.3601 27.264 91.8561 27.216C91.1841 27.144 90.7041 26.904 90.4161 26.496C90.1521 26.088 90.0201 25.584 90.0201 24.984C90.0201 24.192 90.1761 23.328 90.4881 22.392C90.8241 21.456 91.2081 20.568 91.6401 19.728C92.0721 18.864 92.4201 18.192 92.6841 17.712C93.2121 16.824 93.7401 16.272 94.2681 16.056C94.8201 15.84 95.4921 15.732 96.2841 15.732C96.0441 15.804 95.7321 16.092 95.3481 16.596C94.9641 17.076 94.5561 17.676 94.1241 18.396C93.7161 19.116 93.3201 19.896 92.9361 20.736C92.5761 21.552 92.2761 22.356 92.0361 23.148C91.8201 23.916 91.7121 24.576 91.7121 25.128C91.7121 25.536 91.7841 25.872 91.9281 26.136C92.0961 26.4 92.3481 26.532 92.6841 26.532C92.9721 26.532 93.3081 26.424 93.6921 26.208C94.0761 25.968 94.4241 25.68 94.7361 25.344C95.7921 24.168 96.6441 22.884 97.2921 21.492C97.9641 20.076 98.7081 18.672 99.5241 17.28C100.052 16.392 100.58 15.84 101.108 15.624C101.66 15.408 102.332 15.3 103.124 15.3C102.908 15.372 102.596 15.66 102.188 16.164C101.804 16.644 101.384 17.256 100.928 18C100.496 18.744 100.076 19.536 99.6681 20.376C99.2841 21.216 98.9601 22.02 98.6961 22.788C98.4561 23.556 98.3361 24.204 98.3361 24.732C98.3361 25.452 98.5281 25.932 98.9121 26.172C99.2961 26.388 99.6441 26.496 99.9561 26.496C100.58 26.496 101.168 26.292 101.72 25.884C102.296 25.476 102.812 24.96 103.268 24.336C103.748 23.712 104.156 23.076 104.492 22.428C104.852 21.756 105.128 21.18 105.32 20.7C105.224 20.316 105.176 19.632 105.176 18.648C105.176 18.048 105.212 17.436 105.284 16.812C105.356 16.188 105.476 15.648 105.644 15.192C105.884 14.592 106.256 14.292 106.76 14.292C106.952 14.292 107.12 14.388 107.264 14.58C107.432 14.772 107.516 15.096 107.516 15.552C107.516 16.224 107.408 16.92 107.192 17.64C107 18.336 106.844 18.816 106.724 19.08C106.628 19.32 106.508 19.62 106.364 19.98C106.22 20.316 106.052 20.688 105.86 21.096C105.836 21.84 105.956 22.452 106.22 22.932C106.508 23.388 106.856 23.616 107.264 23.616C107.72 23.616 108.116 23.484 108.452 23.22C108.812 22.932 109.112 22.596 109.352 22.212C109.616 21.804 109.832 21.432 110 21.096C110.072 20.952 110.168 20.88 110.288 20.88C110.384 20.88 110.432 20.94 110.432 21.06C110.432 21.132 110.396 21.24 110.324 21.384C110.036 22.032 109.628 22.644 109.1 23.22C108.572 23.796 107.924 24.084 107.156 24.084C106.772 24.084 106.388 23.928 106.004 23.616C105.644 23.304 105.428 22.812 105.356 22.14C104.948 22.86 104.456 23.616 103.88 24.408C103.328 25.2 102.68 25.872 101.936 26.424C101.192 26.976 100.316 27.252 99.3081 27.252ZM116.46 27.216C115.764 27.216 115.212 27 114.804 26.568C114.42 26.136 114.228 25.596 114.228 24.948C114.228 24.636 114.288 24.276 114.408 23.868C114.744 22.812 115.272 21.768 115.992 20.736C116.736 19.68 117.348 18.636 117.828 17.604C117.996 17.268 118.08 16.968 118.08 16.704C118.08 16.44 117.996 16.248 117.828 16.128C117.684 15.984 117.504 15.912 117.288 15.912C116.976 15.912 116.58 16.044 116.1 16.308C115.644 16.548 115.116 17.016 114.516 17.712C114.156 18.144 113.748 18.672 113.292 19.296C112.836 19.92 112.464 20.484 112.176 20.988C111.696 21.804 111.264 22.632 110.88 23.472C110.496 24.288 110.16 25.044 109.872 25.74C109.632 26.292 109.344 26.652 109.008 26.82C108.672 26.964 108.348 27.024 108.036 27C107.724 26.976 107.484 26.976 107.316 27C107.988 25.68 108.648 24.288 109.296 22.824C109.944 21.36 110.496 19.896 110.952 18.432C111.168 17.76 111.348 17.112 111.492 16.488C111.636 15.84 111.696 15.42 111.672 15.228V15.156C111.672 14.964 111.768 14.916 111.96 15.012C112.272 15.18 112.488 15.432 112.608 15.768C112.728 16.08 112.788 16.44 112.788 16.848C112.788 17.304 112.728 17.796 112.608 18.324C112.488 18.828 112.344 19.284 112.176 19.692C112.488 19.26 112.824 18.828 113.184 18.396C113.544 17.94 113.94 17.508 114.372 17.1C114.876 16.596 115.416 16.164 115.992 15.804C116.568 15.42 117.192 15.228 117.864 15.228C118.512 15.228 118.98 15.372 119.268 15.66C119.58 15.948 119.736 16.332 119.736 16.812C119.736 17.316 119.592 17.892 119.304 18.54C118.992 19.284 118.608 20.028 118.152 20.772C117.72 21.516 117.324 22.236 116.964 22.932C116.892 23.076 116.772 23.304 116.604 23.616C116.46 23.904 116.328 24.228 116.208 24.588C116.16 24.756 116.112 24.936 116.064 25.128C116.016 25.296 115.992 25.476 115.992 25.668C115.992 25.908 116.04 26.136 116.136 26.352C116.256 26.544 116.472 26.64 116.784 26.64C117.192 26.64 117.576 26.508 117.936 26.244C118.32 25.956 118.644 25.656 118.908 25.344C119.46 24.744 119.964 24.084 120.42 23.364C120.9 22.62 121.368 21.84 121.824 21.024C121.896 20.928 121.944 20.88 121.968 20.88C122.064 20.88 122.112 20.988 122.112 21.204C122.112 21.348 122.088 21.456 122.04 21.528C121.608 22.32 121.152 23.1 120.672 23.868C120.192 24.612 119.604 25.332 118.908 26.028C118.596 26.34 118.236 26.616 117.828 26.856C117.42 27.096 116.964 27.216 116.46 27.216Z" fill="white"></path>
</svg>
